# xmcd
#
# Track frame offsets:
#	150
#	15107
#	27657
#	46070
#	58482
#	73307
#	86140
#	97065
#	112045
#	123507
#	139467
#	156052
#	175057
#	195620
#	211245
#	226382
#
# Disc length: 3268 seconds
#
# Revision: 2
# Processed by: cddbd v1.5.2PL0 Copyright (c) Steve Scherf et al.
# Submitted via: audiograbber 1.83.01
#
DISCID=e90cc210
DTITLE=Various Artist - Today's Most Requested Country Love Songs - '92
DYEAR=1992
DGENRE=Oldies
TTITLE0=Billy Dean - Somewhere In My Broken Heart
TTITLE1=Mark Chesnutt - Your Love Is A Miracle
TTITLE2=Trisha Yearwood - She's In Love With The Boy
TTITLE3=Lee Greenwood and  Suzy Bogguss - Hopelessly Yours
TTITLE4=McBride and The Ride - Can I Count On You
TTITLE5=Patty Loveless - Blue Memories
TTITLE6=Marty Stuart - Till I Found You
TTITLE7=Joan Kennedy - Candle In The Window
TTITLE8=Garth Brooks - Not Counting You
TTITLE9=Randy Travis - Forever And Ever, Amen
TTITLE10=Carlene Carter - I Fell In Love
TTITLE11=Vince Gill - When I Call Your Name
TTITLE12=Reba McEntire - Fallin' Out Of Love
TTITLE13=Tanya Tucker - Down To My Last Teardrop
TTITLE14=Holly Dunn - Heart Full Of Love
TTITLE15=Johnny Lee - Lady In Red
EXTD=
EXTT0=
EXTT1=
EXTT2=
EXTT3=
EXTT4=
EXTT5=
EXTT6=
EXTT7=
EXTT8=
EXTT9=
EXTT10=
EXTT11=
EXTT12=
EXTT13=
EXTT14=
EXTT15=
PLAYORDER=
